<svg width="10" height="16" viewBox="0 0 10 16" fill="none" xmlns="http://www.w3.org/2000/svg">
<path d="M4.99969 2.4203C5.96189 2.4203 6.74429 3.1874 6.74429 4.1305C6.74429 5.0708 5.96189 5.8378 4.99969 5.8378C4.03759 5.8378 3.25518 5.0708 3.25518 4.1305C3.25518 3.1874 4.03759 2.4203 4.99969 2.4203ZM4.99969 8.2582C7.32389 8.2582 9.21339 6.406 9.21339 4.1305C9.21339 1.8522 7.32389 0 4.99969 0C2.67559 0 0.788985 1.8522 0.788985 4.1305C0.788985 6.406 2.67559 8.2582 4.99969 8.2582ZM6.70368 11.6273C7.56148 11.4342 8.38748 11.1018 9.14958 10.6331C9.72628 10.278 9.90019 9.5308 9.53789 8.9655C9.17279 8.3974 8.41349 8.2269 7.83389 8.5848C6.10969 9.6473 3.88979 9.6473 2.16259 8.5848C1.58589 8.2269 0.823786 8.3974 0.461486 8.9655C0.0992857 9.5308 0.273186 10.278 0.849886 10.6331C1.61199 11.1018 2.43789 11.4342 3.29569 11.6273L0.939686 13.934C0.458586 14.4056 0.458586 15.1726 0.939686 15.6442C1.18309 15.88 1.49609 15.9993 1.81199 15.9993C2.12789 15.9993 2.44369 15.88 2.68719 15.6442L4.99969 13.3772L7.31519 15.6442C7.79629 16.1186 8.57578 16.1186 9.05978 15.6442C9.54078 15.1726 9.54078 14.4056 9.05978 13.934L6.70368 11.6273Z" fill="white"/>
</svg>
