<svg width="16" height="10" viewBox="0 0 16 10" fill="none" xmlns="http://www.w3.org/2000/svg">
<path d="M15.8574 8.42067C15.8144 8.35177 15.5484 7.79917 14.2683 6.66337C12.9282 5.47407 13.1082 5.66727 14.7223 3.61077C15.7054 2.35837 16.0984 1.59357 15.9754 1.26657C15.8584 0.954869 15.1353 1.03707 15.1353 1.03707L12.7312 1.05047C12.7312 1.05047 12.5531 1.02757 12.4201 1.10307C12.2911 1.17767 12.2081 1.34977 12.2081 1.34977C12.2081 1.34977 11.8271 2.31917 11.3191 3.14327C10.248 4.88227 9.81891 4.97407 9.64391 4.86607C9.23691 4.61457 9.33891 3.85457 9.33891 3.31537C9.33891 1.62987 9.60591 0.927169 8.81791 0.745469C8.55591 0.685269 8.36381 0.64517 7.69481 0.63847C6.83671 0.62987 6.10971 0.641269 5.69861 0.833469C5.42461 0.961569 5.21361 1.24747 5.34261 1.26367C5.50161 1.28377 5.86171 1.35647 6.05271 1.60497C6.29971 1.92527 6.29072 2.64617 6.29072 2.64617C6.29072 2.64617 6.43271 4.62987 5.95971 4.87657C5.63461 5.04577 5.18961 4.70067 4.23451 3.12227C3.74551 2.31437 3.37551 1.42047 3.37551 1.42047C3.37551 1.42047 3.30451 1.25417 3.17751 1.16517C3.02341 1.05717 2.80741 1.02277 2.80741 1.02277L0.521315 1.03617C0.521315 1.03617 0.178215 1.04567 0.0522146 1.18817C-0.0597654 1.31527 0.0432138 1.57727 0.0432138 1.57727C0.0432138 1.57727 1.83341 5.58017 3.85951 7.59847C5.71861 9.44837 7.82881 9.32697 7.82881 9.32697H8.78491C8.78491 9.32697 9.07391 9.29637 9.22091 9.14437C9.35691 9.00477 9.35191 8.74277 9.35191 8.74277C9.35191 8.74277 9.33292 7.51617 9.92902 7.33547C10.516 7.15767 11.2701 8.52097 12.0691 9.04587C12.6732 9.44267 13.1322 9.35567 13.1322 9.35567L15.2693 9.32697C15.2693 9.32697 16.3874 9.26097 15.8574 8.42067Z" fill="white"/>
</svg>
