<svg width="16" height="16" viewBox="0 0 16 16" fill="none" xmlns="http://www.w3.org/2000/svg">
<path d="M9.41502 0.363525C8.94862 0.363525 8.51092 0.612025 8.23022 0.970325C7.94942 1.32853 7.79472 1.76533 7.68192 2.22553C7.50292 2.96563 7.44762 3.78683 7.43442 4.52693C6.12352 4.61843 4.93642 5.02643 3.95052 5.65673C3.55042 5.30363 3.06852 5.10753 2.60652 5.11273C2.08042 5.11793 1.58082 5.35593 1.20942 5.84503C0.499819 6.77863 0.581619 8.30593 1.40392 9.21333C1.35312 9.49323 1.31552 9.78083 1.31552 10.0711C1.31552 13.1466 4.30862 15.6363 8.00032 15.6363C11.6919 15.6363 14.685 13.144 14.685 10.0711C14.685 9.78083 14.6474 9.49323 14.5966 9.21333C15.4189 8.30593 15.5007 6.77863 14.7911 5.84503C14.4197 5.35593 13.9202 5.11793 13.394 5.11273C12.932 5.10753 12.4501 5.30363 12.05 5.65673C11.0685 5.02903 9.88812 4.62113 8.58392 4.52693C8.60152 3.84433 8.64802 3.13563 8.77842 2.60213C8.86022 2.26743 8.95742 2.02423 9.06132 1.89083C9.16522 1.75743 9.24042 1.70253 9.41502 1.70253C9.79302 1.70253 9.84172 1.83063 10.0694 2.14193C10.1843 2.29883 10.3169 2.49493 10.5292 2.68583C10.7414 2.87673 11.0553 3.04153 11.3957 3.04153V1.70253C11.3006 1.70253 11.283 1.69993 11.2188 1.63973C11.1547 1.57963 11.0663 1.44103 10.9359 1.26323C10.675 0.904926 10.1688 0.363525 9.41502 0.363525ZM13.0934 0.489126C12.2136 0.489126 11.5018 1.33113 11.5018 2.37203C11.5018 3.41283 12.2136 4.25493 13.0934 4.25493C13.9732 4.25493 14.685 3.41283 14.685 2.37203C14.685 1.33113 13.9732 0.489126 13.0934 0.489126ZM13.0934 1.15853C13.6593 1.15853 14.1191 1.70253 14.1191 2.37203C14.1191 3.04153 13.6593 3.58543 13.0934 3.58543C12.5275 3.58543 12.0677 3.04153 12.0677 2.37203C12.0677 1.70253 12.5275 1.15853 13.0934 1.15853ZM8.00032 5.57303C11.1326 5.57303 13.7831 7.63643 13.7831 10.0711C13.7831 12.5085 11.1326 14.5693 8.00032 14.5693C4.86792 14.5693 2.21742 12.5085 2.21742 10.0711C2.21742 7.63643 4.86792 5.57303 8.00032 5.57303ZM2.62422 6.17973C2.78112 6.18233 2.94472 6.22423 3.10172 6.30523C2.53352 6.81523 2.08262 7.40103 1.77532 8.06273C1.56312 7.54483 1.62062 6.89892 1.88142 6.55632C2.07152 6.30522 2.33462 6.17713 2.62422 6.17973ZM13.3764 6.17973C13.6659 6.17713 13.929 6.30522 14.1191 6.55632C14.38 6.89892 14.4374 7.54483 14.2252 8.06273C13.9179 7.40103 13.467 6.81523 12.8989 6.30523C13.0558 6.22423 13.2194 6.18233 13.3764 6.17973ZM5.73662 7.85343C5.17072 7.85343 4.71092 8.39743 4.71092 9.06693C4.71092 9.73643 5.17072 10.2803 5.73662 10.2803C6.30262 10.2803 6.76242 9.73643 6.76242 9.06693C6.76242 8.39743 6.30262 7.85343 5.73662 7.85343ZM10.2639 7.85343C9.69802 7.85343 9.23822 8.39743 9.23822 9.06693C9.23822 9.73643 9.69802 10.2803 10.2639 10.2803C10.8298 10.2803 11.2896 9.73643 11.2896 9.06693C11.2896 8.39743 10.8298 7.85343 10.2639 7.85343ZM5.18842 11.975C5.54882 12.8563 6.66292 13.7115 8.00032 13.7115C9.33772 13.7115 10.4695 12.8563 10.8298 11.975C10.1755 12.4745 9.14312 12.8118 8.00032 12.8118C6.85742 12.8118 5.84282 12.4745 5.18842 11.975Z" fill="white"/>
</svg>
